<svg xmlns="http://www.w3.org/2000/svg" width="72.998" height="73" viewBox="0 0 72.998 73">
  <path id="Intersection_13" data-name="Intersection 13" d="M41.7,72a1.125,1.125,0,0,1-1.125-1.125V58.5h13.5a4.5,4.5,0,0,0,4.5-4.5V40.5h9c-1.215-2.734-2.509-6.548-3.877-10.585C61.82,24.385,59.487,17.5,57.726,15,53.644,9.2,44.576,4.5,37.488,4.5H28.2c-12.563,0-23.154,9.7-23.61,21.624-.009.236-.016.62-.016.856,0,5.552,3.362,13.058,7.505,16.754l1.5,1.341v25.8A1.125,1.125,0,0,1,12.445,72H10.2A1.125,1.125,0,0,1,9.07,70.875V47.084C4.1,42.656.069,33.659.069,27c0-.29.009-.76.021-1.05C.65,11.262,13.5,0,28.2,0H37.49C45.867,0,56.579,5.56,61.4,12.41c3.465,4.925,7.332,19.635,10.277,26.262a5.354,5.354,0,0,1,.388,1.828,4.5,4.5,0,0,1-4.5,4.5h-4.5v9a9,9,0,0,1-9,9h-9v7.875A1.125,1.125,0,0,1,43.945,72ZM24.37,40.5V34.287a6.381,6.381,0,0,1-1.8.363,5.4,5.4,0,0,1-5.4-5.4c0-.123.063-.228.072-.348A5.348,5.348,0,0,1,13.57,23.85a5.4,5.4,0,0,1,5.4-5.4,5.4,5.4,0,0,1,5.4-5.4,5.256,5.256,0,0,1,2.685.817,5.205,5.205,0,0,1,9.032,0,5.241,5.241,0,0,1,2.683-.817,5.734,5.734,0,0,1,5.035,3.6h.365a5.291,5.291,0,0,1,5.4,5.175A5.291,5.291,0,0,1,44.17,27H38.246a6.342,6.342,0,0,1,.525,2.25,5.4,5.4,0,0,1-5.4,5.4,6.369,6.369,0,0,1-1.8-.363V40.5Z" transform="translate(0.432 0.5)" fill="#d8ab4e" stroke="#000a20" stroke-width="1"/>
</svg>
