<svg xmlns="http://www.w3.org/2000/svg" width="63.971" height="73.09" viewBox="0 0 63.971 73.09">
  <path id="Intersection_14" data-name="Intersection 14" d="M60.167,72a1.128,1.128,0,0,1-1.125-1.125V59.414A14.386,14.386,0,0,0,45.542,45.1V55.463a8.971,8.971,0,0,1,6.75,8.662v4.5a2.259,2.259,0,0,1-.661,1.589l-1.448,1.448a1.13,1.13,0,0,1-1.589,0L47,70.073a1.129,1.129,0,0,1,0-1.589l.8-.8V64.364a4.681,4.681,0,0,0-3.74-4.683,4.52,4.52,0,0,0-5.26,4.443v3.558l.8.8a1.129,1.129,0,0,1,0,1.589l-1.589,1.589a1.13,1.13,0,0,1-1.589,0l-1.448-1.448a2.259,2.259,0,0,1-.661-1.589V64.518a9.357,9.357,0,0,1,6.75-9.084V45.76a28.177,28.177,0,0,1-18,0V56.573a7.875,7.875,0,1,1-4.5,0V45.085A14.386,14.386,0,0,0,5.071,59.4V70.875A1.128,1.128,0,0,1,3.946,72H1.7A1.128,1.128,0,0,1,.571,70.875V59.4A18.889,18.889,0,0,1,18.908,40.514c4.753-.141,6.23,2.236,13.163,2.236s8.423-2.377,13.176-2.236A18.843,18.843,0,0,1,63.542,59.4V70.875A1.128,1.128,0,0,1,62.417,72ZM17.446,64.125a3.375,3.375,0,1,0,3.375-3.375A3.384,3.384,0,0,0,17.446,64.125ZM14.071,18a18,18,0,1,1,18,18A18,18,0,0,1,14.071,18Zm4.5,0a13.5,13.5,0,1,0,13.5-13.5A13.521,13.521,0,0,0,18.571,18Z" transform="translate(-0.07 0.5)" fill="rgba(0,0,0,0)" stroke="#000a20" stroke-width="1"/>
</svg>
