<svg xmlns="http://www.w3.org/2000/svg" width="37" height="72" viewBox="0 0 37 72">
  <path id="Intersection_17" data-name="Intersection 17" d="M16.941,71.5a1.116,1.116,0,0,1-.191-.625V63H14.12A16.957,16.957,0,0,1,2.407,58.148a1.113,1.113,0,0,1,.041-1.616l1.66-1.519a1.132,1.132,0,0,1,1.547.042A12.222,12.222,0,0,0,14.107,58.5H24.485c4.415,0,8.015-4.064,8.015-9.042,0-4.036-2.4-7.622-5.864-8.7L10.014,35.536C4.712,33.877,1,28.533,1,22.542,1,15.075,6.611,9,13.515,9H16.75V1.125A1.116,1.116,0,0,1,16.941.5h4.118a1.117,1.117,0,0,1,.191.625V8.986h2.658a16.964,16.964,0,0,1,11.714,4.851,1.131,1.131,0,0,1-.057,1.632l-1.673,1.518a1.132,1.132,0,0,1-1.547-.042A12.221,12.221,0,0,0,23.894,13.5H13.515C9.1,13.5,5.5,17.55,5.5,22.542c0,4.036,2.419,7.622,5.864,8.7l16.621,5.217C33.287,38.138,37,43.482,37,49.458,37,56.925,31.389,63,24.485,63H21.25v7.875a1.117,1.117,0,0,1-.19.625Z" transform="translate(-0.5)" fill="#d8ab4e" stroke="#0b1327" stroke-width="1"/>
</svg>
