<svg xmlns="http://www.w3.org/2000/svg" width="91" height="55.028" viewBox="0 0 91 55.028">
  <path id="Intersection_15" data-name="Intersection 15" d="M44.831,61.34l-1.013-.871a11.283,11.283,0,0,1-14.2.028L18.155,49.528H13.486A4.482,4.482,0,0,1,9,53.986H1.125A1.128,1.128,0,0,1,0,52.861v-2.25a1.128,1.128,0,0,1,1.125-1.125H9V22.5H1.125A1.128,1.128,0,0,1,0,21.375v-2.25A1.128,1.128,0,0,1,1.125,18H17.072L24.1,10.969A6.748,6.748,0,0,1,28.87,8.986h9.773a6.765,6.765,0,0,1,4.12,1.448,6.686,6.686,0,0,1,3.98-1.407h14.2a6.692,6.692,0,0,1,4.766,1.983l7.2,7.017L88.875,18A1.138,1.138,0,0,1,90,18.97v2.579a1.129,1.129,0,0,1-1.111.951l-7.875.028V49.486h7.875A1.129,1.129,0,0,1,90,50.437v2.6a1.129,1.129,0,0,1-1.111.951H81.014a4.492,4.492,0,0,1-4.486-4.458H69.693a6.745,6.745,0,0,1-1.476,3.614l-1.337,1.645a6.753,6.753,0,0,1-8.437,1.688l-3.079,3.783A7.5,7.5,0,0,1,44.831,61.34ZM13.5,45.014h6.468L32.611,57.122a6.753,6.753,0,0,0,9.366-1.111l1.462-1.8,4.3,3.67a2.974,2.974,0,0,0,4.135-.478l5.836-7.171,2.5,2.024a2.247,2.247,0,0,0,3.164-.323l1.336-1.645a2.267,2.267,0,0,0-.323-3.164L46.73,32.794l-3.207,2.938c-5.386,4.937-11.615,1.6-13.626-.59a9.637,9.637,0,0,1,.59-13.627l8.3-7.621c-.112-.31-.029-.1-.155-.408H28.856a2.256,2.256,0,0,0-1.588.661l-8.339,8.339H13.5ZM54.211,22.865a2.248,2.248,0,0,1-.14,3.179l-3.994,3.67L67.218,43.636a7.133,7.133,0,0,1,1.238,1.379H76.5V22.5H71.058l-8.536-8.311a2.246,2.246,0,0,0-1.6-.675h-14.2a2.259,2.259,0,0,0-1.518.59L33.511,24.82a5.154,5.154,0,0,0-.31,7.27,5.314,5.314,0,0,0,7.271.31l10.561-9.675a2.26,2.26,0,0,1,3.178.14ZM85.5,42.736a2.25,2.25,0,1,1,2.25,2.25A2.257,2.257,0,0,1,85.5,42.736ZM0,42.722a2.25,2.25,0,1,1,2.25,2.25A2.257,2.257,0,0,1,0,42.722Z" transform="translate(0.5 -8.486)" fill="rgba(0,0,0,0)" stroke="#000a20" stroke-width="1"/>
</svg>
