<svg xmlns="http://www.w3.org/2000/svg" width="17.5" height="17.5" viewBox="0 0 17.5 17.5">
  <path id="Intersection_19" data-name="Intersection 19" d="M2.4,20.25a1.255,1.255,0,0,1-1.246-1.262V4.011A1.255,1.255,0,0,1,2.4,2.75h15a1.258,1.258,0,0,1,1.25,1.261V18.988A1.259,1.259,0,0,1,17.4,20.25Zm11.172-6.563V17.75h2.594V13.172c0-2.25-.488-3.98-3.113-3.98A2.732,2.732,0,0,0,10.6,10.539h-.035V9.4H8.072V17.75h2.594V13.617c0-1.09.207-2.145,1.559-2.145C13.553,11.472,13.572,12.719,13.572,13.687ZM3.849,17.75h2.6V9.4h-2.6Zm-.207-11a1.5,1.5,0,1,0,1.5-1.5A1.5,1.5,0,0,0,3.642,6.754Z" transform="translate(-1.154 -2.75)" fill="#fff"/>
</svg>
