<svg xmlns="http://www.w3.org/2000/svg" xmlns:xlink="http://www.w3.org/1999/xlink" width="145.404" height="39.998" viewBox="0 0 145.404 39.998">
  <defs>
    <linearGradient id="linear-gradient" x1="0.519" x2="0.585" y2="1" gradientUnits="objectBoundingBox">
      <stop offset="0" stop-color="#b48c36"/>
      <stop offset="0.365" stop-color="#d8ab4e"/>
      <stop offset="0.429" stop-color="#edc97e"/>
      <stop offset="0.498" stop-color="#d8ab4e"/>
      <stop offset="1" stop-color="#b48c36"/>
    </linearGradient>
  </defs>
  <g id="Group_1599" data-name="Group 1599" transform="translate(-240 -99.004)">
    <path id="Union_3" data-name="Union 3" d="M22728.215,24529.432a20.079,20.079,0,1,1,7.787,1.57A20.006,20.006,0,0,1,22728.215,24529.432Zm-4.236-30.449A17,17,0,1,0,22736,24494,16.9,16.9,0,0,0,22723.979,24498.982Zm99.625,29.582v-24.842h3.594v1.977a8.161,8.161,0,0,1,5.584-2.34,9.018,9.018,0,0,1,0,18,8.161,8.161,0,0,1-5.584-2.34v9.543Zm3.594-16.205a5.246,5.246,0,1,0,5.221-5.762A5.6,5.6,0,0,0,22827.2,24512.359Zm-101.094,8.539a14,14,0,1,1,9.9,4.1A13.9,13.9,0,0,1,22726.1,24520.9Zm.707-19.092A12.991,12.991,0,1,0,22736,24498,12.916,12.916,0,0,0,22726.811,24501.807Zm117.313,10.375a8.831,8.831,0,0,1,8.814-8.822,8.52,8.52,0,0,1,8.287,10.262h-13.5a5.449,5.449,0,0,0,5.4,4.494,6.633,6.633,0,0,0,5.221-2.7l2.34,2.34a9.993,9.993,0,0,1-7.561,3.6A9.18,9.18,0,0,1,22844.123,24512.182Zm3.742-1.619h10.01a4.869,4.869,0,0,0-4.937-4.145A5.128,5.128,0,0,0,22847.865,24510.563Zm-46.223,1.8a9,9,0,1,1,9,9A9.145,9.145,0,0,1,22801.643,24512.359Zm3.6,0a5.411,5.411,0,1,0,5.4-5.762A5.613,5.613,0,0,0,22805.244,24512.359Zm-22.324,0a8.971,8.971,0,0,1,16.02-5.578l-2.34,2.34a5.908,5.908,0,0,0-4.678-2.523,5.771,5.771,0,0,0,0,11.518,6.385,6.385,0,0,0,4.857-2.7l2.34,2.34a9.709,9.709,0,0,1-7.2,3.6A9.148,9.148,0,0,1,22782.92,24512.359Zm-16.018,5.941,2.338-2.34a5.834,5.834,0,0,0,4.322,2.154c1.977,0,2.881-.893,2.881-2.154,0-3.238-8.822-1.439-8.822-7.561,0-2.518,2.52-5.041,6.121-5.041a7.173,7.173,0,0,1,5.576,2.34l-2.338,2.338a4.636,4.636,0,0,0-3.238-1.439c-1.619,0-2.52.9-2.52,1.8,0,3.238,8.816,1.441,8.816,7.561,0,2.881-2.518,5.4-6.477,5.4A8.357,8.357,0,0,1,22766.9,24518.3Z" transform="translate(-22476 -24392)" fill="url(#linear-gradient)"/>
  </g>
</svg>
