<svg xmlns="http://www.w3.org/2000/svg" width="82.006" height="73" viewBox="0 0 82.006 73">
  <path id="Intersection_18" data-name="Intersection 18" d="M50,72a2.257,2.257,0,0,1-2.25-2.25V63h-9v6.75A2.257,2.257,0,0,1,36.5,72H20.75a2.257,2.257,0,0,1-2.25-2.25V58.4a22.409,22.409,0,0,1-9-17.9H8.375a7.88,7.88,0,0,1-7.8-8.915A8.055,8.055,0,0,1,8.656,24.75a.847.847,0,0,1,.844.844v2.813a.846.846,0,0,1-.844.843h-.14a3.463,3.463,0,0,0-3.445,2.7A3.378,3.378,0,0,0,8.375,36H9.95A22.5,22.5,0,0,1,23.562,19.674,15.116,15.116,0,0,1,23,15.75a15.75,15.75,0,0,1,31.5,0,12.171,12.171,0,0,1-.126,1.435A19.784,19.784,0,0,1,65.75,13.5H68v9.085A22.588,22.588,0,0,1,75.1,31.5H79.25a2.257,2.257,0,0,1,2.25,2.25v18A2.257,2.257,0,0,1,79.25,54H72.4A23.125,23.125,0,0,1,68,58.373V69.75A2.257,2.257,0,0,1,65.75,72Zm2.25-13.5v9H63.5V56.152c4.262-3.263,4.262-3.5,6.652-6.652H77V36H72.162c-2.475-5.653-3.079-6.947-8.663-11.18V18.169c-4.091.6-6.384,2.433-8.761,4.331H32a18.016,18.016,0,0,0-18,18c0,2.5-.127,8.761,9,15.652V67.5H34.25v-9ZM27.5,15.75a10.468,10.468,0,0,0,.352,2.672A22.447,22.447,0,0,1,32,18H49.775A11.8,11.8,0,0,0,50,15.75a11.25,11.25,0,1,0-22.5,0ZM59,38.25a2.25,2.25,0,1,1,2.25,2.25A2.257,2.257,0,0,1,59,38.25Z" transform="translate(0.006 0.5)" fill="rgba(0,0,0,0)" stroke="#0b1327" stroke-width="1"/>
</svg>
