<svg xmlns="http://www.w3.org/2000/svg" width="73" height="55" viewBox="0 0 73 55">
  <path id="Intersection_16" data-name="Intersection 16" d="M2.25,63A2.251,2.251,0,0,1,0,60.75V10.125A1.125,1.125,0,0,1,1.125,9h2.25A1.125,1.125,0,0,1,4.5,10.125V58.5H70.875A1.125,1.125,0,0,1,72,59.625v2.25A1.125,1.125,0,0,1,70.875,63ZM50.625,40.5A3.375,3.375,0,1,1,54,43.875,3.376,3.376,0,0,1,50.625,40.5Zm-31.5,0A3.375,3.375,0,1,1,22.5,43.875,3.376,3.376,0,0,1,19.125,40.5Zm18-9A3.375,3.375,0,1,1,40.5,34.875,3.376,3.376,0,0,1,37.125,31.5Zm18-13.5A3.375,3.375,0,1,1,58.5,21.375,3.376,3.376,0,0,1,55.125,18Zm-31.5,0A3.375,3.375,0,1,1,27,21.375,3.376,3.376,0,0,1,23.625,18Z" transform="translate(0.5 -8.5)" fill="#d8ab4e" stroke="#000a20" stroke-width="1"/>
</svg>
