<svg xmlns="http://www.w3.org/2000/svg" width="82" height="64" viewBox="0 0 82 64">
  <path id="Intersection_12" data-name="Intersection 12" d="M9.851,67.5a4.449,4.449,0,0,1-3.858-2.137A40.5,40.5,0,1,1,81.5,45a40.286,40.286,0,0,1-5.493,20.363A4.449,4.449,0,0,1,72.148,67.5ZM5,45A35.961,35.961,0,0,0,9.879,63.1L72.148,63A35.608,35.608,0,0,0,77,45,36,36,0,1,0,5,45Zm27,4.5a8.992,8.992,0,0,1,17.214-3.649l18.418-3.07a2.25,2.25,0,0,1,.737,4.44L49.919,50.3A8.976,8.976,0,0,1,32,49.5Zm4.5,0A4.5,4.5,0,1,0,41,45,4.5,4.5,0,0,0,36.5,49.5ZM10.625,45A3.375,3.375,0,1,1,14,48.375,3.374,3.374,0,0,1,10.625,45ZM56.75,25.875a3.375,3.375,0,1,1,3.375,3.375A3.375,3.375,0,0,1,56.75,25.875Zm-38.249,0a3.375,3.375,0,1,1,3.374,3.375A3.374,3.374,0,0,1,18.5,25.875ZM37.625,18A3.375,3.375,0,1,1,41,21.375,3.375,3.375,0,0,1,37.625,18Z" transform="translate(0 -4)" fill="#d8ab4e" stroke="#000a20" stroke-width="1"/>
</svg>
